<svg xmlns="http://www.w3.org/2000/svg" height="20" viewBox="0 -960 960 960" width="20"><path d="M291.303-142.154q-22.548 0-37.849-15.45-15.3-15.451-15.3-37.913v-402.812q0-22.463 15.45-37.913 15.451-15.451 38.153-15.451h65.974v-35.999q0-51.693 33.858-90.924 33.858-39.23 88.481-39.23 51.622 0 87.155 35.304 35.533 35.303 35.533 86.85v43.999h65.628q22.559 0 38.01 15.451 15.45 15.45 15.45 37.913v402.812q0 22.462-15.462 37.913-15.462 15.45-38.011 15.45h-377.07Zm.389-28.923h376.616q9.231 0 16.923-7.692 7.692-7.692 7.692-16.923v-402.462q0-9.231-7.692-16.923-7.692-7.692-16.923-7.692h-65.654v81.346q0 6.108-4.213 10.381-4.212 4.273-10.23 4.273-6.019 0-10.25-4.273-4.23-4.273-4.23-10.381v-81.346H386.654v81.346q0 6.108-4.213 10.381-4.212 4.273-10.23 4.273-6.019 0-10.25-4.273-4.23-4.273-4.23-10.381v-81.346h-66.039q-9.231 0-16.923 7.692-7.692 7.692-7.692 16.923v402.462q0 9.231 7.692 16.923 7.692 7.692 16.923 7.692Zm94.962-480.616h187.077v-43.999q0-39.547-27.085-66.389t-66.789-26.842q-39.703 0-66.453 26.896t-26.75 66.335v43.999ZM267.077-171.077v-451.692 451.692Z"/></svg>